<mxfile host="app.diagrams.net" agent="Mozilla/5.0 (Windows NT 10.0; Win64; x64) AppleWebKit/537.36 (KHTML, like Gecko) Chrome/137.0.0.0 Safari/537.36" version="27.1.6">
  <diagram name="Seite-1" id="ArK8rCzS6DqzQXWjPLjL">
    <mxGraphModel dx="2239" dy="769" grid="1" gridSize="10" guides="1" tooltips="1" connect="1" arrows="1" fold="1" page="1" pageScale="1" pageWidth="827" pageHeight="1169" math="0" shadow="0">
      <root>
        <mxCell id="0" />
        <mxCell id="1" parent="0" />
        <mxCell id="41NWjR0-9g-0S3QR88WD-5" value="@RestControlelr&lt;br&gt;Controller%Model%" style="swimlane;fontStyle=1;align=center;verticalAlign=top;childLayout=stackLayout;horizontal=1;startSize=41;horizontalStack=0;resizeParent=1;resizeParentMax=0;resizeLast=0;collapsible=1;marginBottom=0;whiteSpace=wrap;html=1;" vertex="1" parent="1">
          <mxGeometry x="90" y="139" width="360" height="205" as="geometry" />
        </mxCell>
        <mxCell id="41NWjR0-9g-0S3QR88WD-6" value="- %Model%Service" style="text;strokeColor=none;fillColor=none;align=left;verticalAlign=top;spacingLeft=4;spacingRight=4;overflow=hidden;rotatable=0;points=[[0,0.5],[1,0.5]];portConstraint=eastwest;whiteSpace=wrap;html=1;" vertex="1" parent="41NWjR0-9g-0S3QR88WD-5">
          <mxGeometry y="41" width="360" height="26" as="geometry" />
        </mxCell>
        <mxCell id="41NWjR0-9g-0S3QR88WD-7" value="" style="line;strokeWidth=1;fillColor=none;align=left;verticalAlign=middle;spacingTop=-1;spacingLeft=3;spacingRight=3;rotatable=0;labelPosition=right;points=[];portConstraint=eastwest;strokeColor=inherit;" vertex="1" parent="41NWjR0-9g-0S3QR88WD-5">
          <mxGeometry y="67" width="360" height="8" as="geometry" />
        </mxCell>
        <mxCell id="41NWjR0-9g-0S3QR88WD-8" value="+ get&lt;span style=&quot;text-align: center;&quot;&gt;&lt;i&gt;%Model%&lt;/i&gt;(id :PathVar) : Out%Model%Dto&lt;/span&gt;&lt;div&gt;&lt;br&gt;&lt;/div&gt;" style="text;strokeColor=none;fillColor=none;align=left;verticalAlign=top;spacingLeft=4;spacingRight=4;overflow=hidden;rotatable=0;points=[[0,0.5],[1,0.5]];portConstraint=eastwest;whiteSpace=wrap;html=1;" vertex="1" parent="41NWjR0-9g-0S3QR88WD-5">
          <mxGeometry y="75" width="360" height="26" as="geometry" />
        </mxCell>
        <mxCell id="41NWjR0-9g-0S3QR88WD-12" value="+ getAll&lt;span style=&quot;text-align: center;&quot;&gt;&lt;i&gt;%Model%&lt;/i&gt;(id :PathVar) : Out%Model%Dto[]&lt;/span&gt;&lt;div&gt;&lt;br&gt;&lt;/div&gt;" style="text;strokeColor=none;fillColor=none;align=left;verticalAlign=top;spacingLeft=4;spacingRight=4;overflow=hidden;rotatable=0;points=[[0,0.5],[1,0.5]];portConstraint=eastwest;whiteSpace=wrap;html=1;" vertex="1" parent="41NWjR0-9g-0S3QR88WD-5">
          <mxGeometry y="101" width="360" height="26" as="geometry" />
        </mxCell>
        <mxCell id="41NWjR0-9g-0S3QR88WD-11" value="+post%Model%(@Valid In%Model%Dto) :&amp;nbsp;&lt;span style=&quot;text-align: center;&quot;&gt;Out%Model%Dto&lt;/span&gt;" style="text;strokeColor=none;fillColor=none;align=left;verticalAlign=top;spacingLeft=4;spacingRight=4;overflow=hidden;rotatable=0;points=[[0,0.5],[1,0.5]];portConstraint=eastwest;whiteSpace=wrap;html=1;" vertex="1" parent="41NWjR0-9g-0S3QR88WD-5">
          <mxGeometry y="127" width="360" height="26" as="geometry" />
        </mxCell>
        <mxCell id="41NWjR0-9g-0S3QR88WD-9" value="+put%Model%(@Valid In%Model%Dto) :&amp;nbsp;&lt;span style=&quot;text-align: center;&quot;&gt;Out%Model%Dto&lt;/span&gt;" style="text;strokeColor=none;fillColor=none;align=left;verticalAlign=top;spacingLeft=4;spacingRight=4;overflow=hidden;rotatable=0;points=[[0,0.5],[1,0.5]];portConstraint=eastwest;whiteSpace=wrap;html=1;" vertex="1" parent="41NWjR0-9g-0S3QR88WD-5">
          <mxGeometry y="153" width="360" height="26" as="geometry" />
        </mxCell>
        <mxCell id="41NWjR0-9g-0S3QR88WD-10" value="+delete%Model%(id :PathVar) :&amp;nbsp;&lt;span style=&quot;text-align: center;&quot;&gt;StatusCode&lt;/span&gt;" style="text;strokeColor=none;fillColor=none;align=left;verticalAlign=top;spacingLeft=4;spacingRight=4;overflow=hidden;rotatable=0;points=[[0,0.5],[1,0.5]];portConstraint=eastwest;whiteSpace=wrap;html=1;" vertex="1" parent="41NWjR0-9g-0S3QR88WD-5">
          <mxGeometry y="179" width="360" height="26" as="geometry" />
        </mxCell>
        <mxCell id="41NWjR0-9g-0S3QR88WD-13" value="@Service&lt;br&gt;%Model%Service" style="swimlane;fontStyle=1;align=center;verticalAlign=top;childLayout=stackLayout;horizontal=1;startSize=40;horizontalStack=0;resizeParent=1;resizeParentMax=0;resizeLast=0;collapsible=1;marginBottom=0;whiteSpace=wrap;html=1;" vertex="1" parent="1">
          <mxGeometry x="520" y="140" width="290" height="204" as="geometry" />
        </mxCell>
        <mxCell id="41NWjR0-9g-0S3QR88WD-14" value="+ %Model%Repository" style="text;strokeColor=none;fillColor=none;align=left;verticalAlign=top;spacingLeft=4;spacingRight=4;overflow=hidden;rotatable=0;points=[[0,0.5],[1,0.5]];portConstraint=eastwest;whiteSpace=wrap;html=1;" vertex="1" parent="41NWjR0-9g-0S3QR88WD-13">
          <mxGeometry y="40" width="290" height="26" as="geometry" />
        </mxCell>
        <mxCell id="41NWjR0-9g-0S3QR88WD-18" value="+ OtherRepositories" style="text;strokeColor=none;fillColor=none;align=left;verticalAlign=top;spacingLeft=4;spacingRight=4;overflow=hidden;rotatable=0;points=[[0,0.5],[1,0.5]];portConstraint=eastwest;whiteSpace=wrap;html=1;" vertex="1" parent="41NWjR0-9g-0S3QR88WD-13">
          <mxGeometry y="66" width="290" height="26" as="geometry" />
        </mxCell>
        <mxCell id="41NWjR0-9g-0S3QR88WD-15" value="" style="line;strokeWidth=1;fillColor=none;align=left;verticalAlign=middle;spacingTop=-1;spacingLeft=3;spacingRight=3;rotatable=0;labelPosition=right;points=[];portConstraint=eastwest;strokeColor=inherit;" vertex="1" parent="41NWjR0-9g-0S3QR88WD-13">
          <mxGeometry y="92" width="290" height="8" as="geometry" />
        </mxCell>
        <mxCell id="41NWjR0-9g-0S3QR88WD-16" value="+ get%Model%(id:String):&lt;span style=&quot;text-align: center;&quot;&gt;Out%Model%Dto&lt;/span&gt;" style="text;strokeColor=none;fillColor=none;align=left;verticalAlign=top;spacingLeft=4;spacingRight=4;overflow=hidden;rotatable=0;points=[[0,0.5],[1,0.5]];portConstraint=eastwest;whiteSpace=wrap;html=1;" vertex="1" parent="41NWjR0-9g-0S3QR88WD-13">
          <mxGeometry y="100" width="290" height="26" as="geometry" />
        </mxCell>
        <mxCell id="41NWjR0-9g-0S3QR88WD-20" value="+ getAll%Model%(id:String):&lt;span style=&quot;text-align: center;&quot;&gt;Out%Model%Dto&lt;/span&gt;" style="text;strokeColor=none;fillColor=none;align=left;verticalAlign=top;spacingLeft=4;spacingRight=4;overflow=hidden;rotatable=0;points=[[0,0.5],[1,0.5]];portConstraint=eastwest;whiteSpace=wrap;html=1;" vertex="1" parent="41NWjR0-9g-0S3QR88WD-13">
          <mxGeometry y="126" width="290" height="26" as="geometry" />
        </mxCell>
        <mxCell id="41NWjR0-9g-0S3QR88WD-19" value="+ add%Model%(In%Model%Dto):&lt;span style=&quot;text-align: center;&quot;&gt;Out%Model%Dto&lt;/span&gt;" style="text;strokeColor=none;fillColor=none;align=left;verticalAlign=top;spacingLeft=4;spacingRight=4;overflow=hidden;rotatable=0;points=[[0,0.5],[1,0.5]];portConstraint=eastwest;whiteSpace=wrap;html=1;" vertex="1" parent="41NWjR0-9g-0S3QR88WD-13">
          <mxGeometry y="152" width="290" height="26" as="geometry" />
        </mxCell>
        <mxCell id="41NWjR0-9g-0S3QR88WD-22" value="+ delete%Model%(id:String): void" style="text;strokeColor=none;fillColor=none;align=left;verticalAlign=top;spacingLeft=4;spacingRight=4;overflow=hidden;rotatable=0;points=[[0,0.5],[1,0.5]];portConstraint=eastwest;whiteSpace=wrap;html=1;" vertex="1" parent="41NWjR0-9g-0S3QR88WD-13">
          <mxGeometry y="178" width="290" height="26" as="geometry" />
        </mxCell>
        <mxCell id="41NWjR0-9g-0S3QR88WD-24" value="&lt;span style=&quot;font-weight: 400;&quot;&gt;«interface»&lt;/span&gt;&lt;br style=&quot;font-weight: 400;&quot;&gt;%Model%Mapper" style="swimlane;fontStyle=1;align=center;verticalAlign=top;childLayout=stackLayout;horizontal=1;startSize=42;horizontalStack=0;resizeParent=1;resizeParentMax=0;resizeLast=0;collapsible=1;marginBottom=0;whiteSpace=wrap;html=1;" vertex="1" parent="1">
          <mxGeometry x="900" y="67" width="380" height="128" as="geometry" />
        </mxCell>
        <mxCell id="41NWjR0-9g-0S3QR88WD-25" value="+ INSTANCE: %Model%Mapper" style="text;strokeColor=none;fillColor=none;align=left;verticalAlign=top;spacingLeft=4;spacingRight=4;overflow=hidden;rotatable=0;points=[[0,0.5],[1,0.5]];portConstraint=eastwest;whiteSpace=wrap;html=1;" vertex="1" parent="41NWjR0-9g-0S3QR88WD-24">
          <mxGeometry y="42" width="380" height="26" as="geometry" />
        </mxCell>
        <mxCell id="41NWjR0-9g-0S3QR88WD-26" value="" style="line;strokeWidth=1;fillColor=none;align=left;verticalAlign=middle;spacingTop=-1;spacingLeft=3;spacingRight=3;rotatable=0;labelPosition=right;points=[];portConstraint=eastwest;strokeColor=inherit;" vertex="1" parent="41NWjR0-9g-0S3QR88WD-24">
          <mxGeometry y="68" width="380" height="8" as="geometry" />
        </mxCell>
        <mxCell id="41NWjR0-9g-0S3QR88WD-27" value="+ %Model%To%Out%Model%Dto(%Model%) :Out%Model%Dto" style="text;strokeColor=none;fillColor=none;align=left;verticalAlign=top;spacingLeft=4;spacingRight=4;overflow=hidden;rotatable=0;points=[[0,0.5],[1,0.5]];portConstraint=eastwest;whiteSpace=wrap;html=1;" vertex="1" parent="41NWjR0-9g-0S3QR88WD-24">
          <mxGeometry y="76" width="380" height="26" as="geometry" />
        </mxCell>
        <mxCell id="41NWjR0-9g-0S3QR88WD-28" value="+ in%Model%DtoTo%Model%(In%Model%Dto) :%Model" style="text;strokeColor=none;fillColor=none;align=left;verticalAlign=top;spacingLeft=4;spacingRight=4;overflow=hidden;rotatable=0;points=[[0,0.5],[1,0.5]];portConstraint=eastwest;whiteSpace=wrap;html=1;" vertex="1" parent="41NWjR0-9g-0S3QR88WD-24">
          <mxGeometry y="102" width="380" height="26" as="geometry" />
        </mxCell>
        <mxCell id="41NWjR0-9g-0S3QR88WD-29" value="«interface»&lt;br&gt;&lt;b&gt;%Model%Repository&amp;lt;%Mdoel%, String&amp;gt;&lt;/b&gt;" style="html=1;whiteSpace=wrap;" vertex="1" parent="1">
          <mxGeometry x="900" y="228" width="240" height="50" as="geometry" />
        </mxCell>
        <mxCell id="41NWjR0-9g-0S3QR88WD-30" value="«interface»&lt;br&gt;&lt;b&gt;MongoRepository&lt;/b&gt;" style="html=1;whiteSpace=wrap;" vertex="1" parent="1">
          <mxGeometry x="1190" y="228" width="180" height="50" as="geometry" />
        </mxCell>
        <mxCell id="41NWjR0-9g-0S3QR88WD-31" value="Model" style="html=1;whiteSpace=wrap;" vertex="1" parent="1">
          <mxGeometry x="900" y="311" width="180" height="50" as="geometry" />
        </mxCell>
        <mxCell id="41NWjR0-9g-0S3QR88WD-32" style="edgeStyle=orthogonalEdgeStyle;rounded=0;orthogonalLoop=1;jettySize=auto;html=1;exitX=1;exitY=0.5;exitDx=0;exitDy=0;entryX=-0.024;entryY=0.462;entryDx=0;entryDy=0;entryPerimeter=0;strokeWidth=2;endArrow=open;endFill=0;" edge="1" parent="1" source="41NWjR0-9g-0S3QR88WD-11" target="41NWjR0-9g-0S3QR88WD-20">
          <mxGeometry relative="1" as="geometry" />
        </mxCell>
        <mxCell id="41NWjR0-9g-0S3QR88WD-33" style="edgeStyle=orthogonalEdgeStyle;rounded=0;orthogonalLoop=1;jettySize=auto;html=1;exitX=1;exitY=0.5;exitDx=0;exitDy=0;entryX=0;entryY=0.25;entryDx=0;entryDy=0;strokeWidth=2;endArrow=open;endFill=0;" edge="1" parent="1" source="41NWjR0-9g-0S3QR88WD-16" target="41NWjR0-9g-0S3QR88WD-24">
          <mxGeometry relative="1" as="geometry">
            <mxPoint x="490" y="260" as="sourcePoint" />
            <mxPoint x="553" y="260" as="targetPoint" />
          </mxGeometry>
        </mxCell>
        <mxCell id="41NWjR0-9g-0S3QR88WD-34" style="edgeStyle=orthogonalEdgeStyle;rounded=0;orthogonalLoop=1;jettySize=auto;html=1;exitX=1;exitY=0.5;exitDx=0;exitDy=0;entryX=0;entryY=0.5;entryDx=0;entryDy=0;strokeWidth=2;endArrow=open;endFill=0;" edge="1" parent="1" source="41NWjR0-9g-0S3QR88WD-16" target="41NWjR0-9g-0S3QR88WD-29">
          <mxGeometry relative="1" as="geometry" />
        </mxCell>
        <mxCell id="41NWjR0-9g-0S3QR88WD-35" style="edgeStyle=orthogonalEdgeStyle;rounded=0;orthogonalLoop=1;jettySize=auto;html=1;exitX=1;exitY=0.5;exitDx=0;exitDy=0;entryX=0;entryY=0.5;entryDx=0;entryDy=0;strokeWidth=2;endArrow=open;endFill=0;" edge="1" parent="1" source="41NWjR0-9g-0S3QR88WD-16" target="41NWjR0-9g-0S3QR88WD-31">
          <mxGeometry relative="1" as="geometry" />
        </mxCell>
        <mxCell id="41NWjR0-9g-0S3QR88WD-37" value="" style="endArrow=block;dashed=1;endFill=0;endSize=12;html=1;rounded=0;entryX=0;entryY=0.5;entryDx=0;entryDy=0;exitX=1;exitY=0.5;exitDx=0;exitDy=0;strokeWidth=2;" edge="1" parent="1" source="41NWjR0-9g-0S3QR88WD-29" target="41NWjR0-9g-0S3QR88WD-30">
          <mxGeometry width="160" relative="1" as="geometry">
            <mxPoint x="700" y="194" as="sourcePoint" />
            <mxPoint x="860" y="194" as="targetPoint" />
          </mxGeometry>
        </mxCell>
        <mxCell id="41NWjR0-9g-0S3QR88WD-39" value="In%Model%Dto" style="html=1;whiteSpace=wrap;" vertex="1" parent="1">
          <mxGeometry x="160" y="410" width="180" height="50" as="geometry" />
        </mxCell>
        <mxCell id="41NWjR0-9g-0S3QR88WD-40" value="Out%Model%Dto" style="html=1;whiteSpace=wrap;" vertex="1" parent="1">
          <mxGeometry x="590" y="400" width="180" height="50" as="geometry" />
        </mxCell>
        <mxCell id="41NWjR0-9g-0S3QR88WD-41" style="edgeStyle=orthogonalEdgeStyle;rounded=0;orthogonalLoop=1;jettySize=auto;html=1;exitX=0.439;exitY=1;exitDx=0;exitDy=0;entryX=0.5;entryY=0;entryDx=0;entryDy=0;strokeWidth=2;endArrow=open;endFill=0;exitPerimeter=0;" edge="1" parent="1" source="41NWjR0-9g-0S3QR88WD-10" target="41NWjR0-9g-0S3QR88WD-39">
          <mxGeometry relative="1" as="geometry">
            <mxPoint x="460" y="290" as="sourcePoint" />
            <mxPoint x="523" y="290" as="targetPoint" />
          </mxGeometry>
        </mxCell>
        <mxCell id="41NWjR0-9g-0S3QR88WD-42" value="&lt;font style=&quot;font-size: 13px;&quot;&gt;&amp;lt;&amp;lt;Validate via&amp;gt;&amp;gt;&lt;/font&gt;" style="edgeLabel;html=1;align=center;verticalAlign=middle;resizable=0;points=[];" vertex="1" connectable="0" parent="41NWjR0-9g-0S3QR88WD-41">
          <mxGeometry x="0.1618" y="-1" relative="1" as="geometry">
            <mxPoint x="1" y="1" as="offset" />
          </mxGeometry>
        </mxCell>
        <mxCell id="41NWjR0-9g-0S3QR88WD-44" style="edgeStyle=orthogonalEdgeStyle;rounded=0;orthogonalLoop=1;jettySize=auto;html=1;exitX=0.534;exitY=0.962;exitDx=0;exitDy=0;entryX=0.5;entryY=0;entryDx=0;entryDy=0;strokeWidth=2;endArrow=open;endFill=0;exitPerimeter=0;" edge="1" parent="1" source="41NWjR0-9g-0S3QR88WD-22" target="41NWjR0-9g-0S3QR88WD-40">
          <mxGeometry relative="1" as="geometry">
            <mxPoint x="240" y="350" as="sourcePoint" />
            <mxPoint x="242" y="431" as="targetPoint" />
          </mxGeometry>
        </mxCell>
        <mxCell id="41NWjR0-9g-0S3QR88WD-45" value="&lt;font style=&quot;font-size: 13px;&quot;&gt;&amp;lt;&amp;lt;Serialice Via&amp;gt;&amp;gt;&lt;/font&gt;" style="edgeLabel;html=1;align=center;verticalAlign=middle;resizable=0;points=[];" vertex="1" connectable="0" parent="41NWjR0-9g-0S3QR88WD-44">
          <mxGeometry x="0.1618" y="-1" relative="1" as="geometry">
            <mxPoint x="1" y="1" as="offset" />
          </mxGeometry>
        </mxCell>
        <mxCell id="41NWjR0-9g-0S3QR88WD-46" style="edgeStyle=orthogonalEdgeStyle;rounded=0;orthogonalLoop=1;jettySize=auto;html=1;exitX=0.444;exitY=1.038;exitDx=0;exitDy=0;entryX=0;entryY=0.5;entryDx=0;entryDy=0;strokeWidth=2;endArrow=open;endFill=0;exitPerimeter=0;" edge="1" parent="1" source="41NWjR0-9g-0S3QR88WD-10" target="41NWjR0-9g-0S3QR88WD-40">
          <mxGeometry relative="1" as="geometry">
            <mxPoint x="260" y="360" as="sourcePoint" />
            <mxPoint x="262" y="441" as="targetPoint" />
            <Array as="points">
              <mxPoint x="250" y="360" />
              <mxPoint x="540" y="360" />
              <mxPoint x="540" y="425" />
            </Array>
          </mxGeometry>
        </mxCell>
        <mxCell id="41NWjR0-9g-0S3QR88WD-47" value="&lt;font style=&quot;font-size: 13px;&quot;&gt;&amp;lt;&amp;lt;Forwards&amp;gt;&amp;gt;&lt;/font&gt;" style="edgeLabel;html=1;align=center;verticalAlign=middle;resizable=0;points=[];" vertex="1" connectable="0" parent="41NWjR0-9g-0S3QR88WD-46">
          <mxGeometry x="0.1618" y="-1" relative="1" as="geometry">
            <mxPoint x="1" y="1" as="offset" />
          </mxGeometry>
        </mxCell>
        <mxCell id="41NWjR0-9g-0S3QR88WD-53" value="" style="shape=providedRequiredInterface;html=1;verticalLabelPosition=bottom;sketch=0;rotation=-180;" vertex="1" parent="1">
          <mxGeometry x="1420" y="243" width="20" height="20" as="geometry" />
        </mxCell>
        <mxCell id="41NWjR0-9g-0S3QR88WD-54" style="edgeStyle=orthogonalEdgeStyle;rounded=0;orthogonalLoop=1;jettySize=auto;html=1;exitX=1;exitY=0.5;exitDx=0;exitDy=0;entryX=1;entryY=0.5;entryDx=0;entryDy=0;entryPerimeter=0;dashed=1;strokeWidth=2;endArrow=open;endFill=0;" edge="1" parent="1" source="41NWjR0-9g-0S3QR88WD-30" target="41NWjR0-9g-0S3QR88WD-53">
          <mxGeometry relative="1" as="geometry" />
        </mxCell>
        <mxCell id="41NWjR0-9g-0S3QR88WD-55" value="Database Connector" style="text;align=center;fontStyle=1;verticalAlign=middle;spacingLeft=3;spacingRight=3;strokeColor=none;rotatable=0;points=[[0,0.5],[1,0.5]];portConstraint=eastwest;html=1;" vertex="1" parent="1">
          <mxGeometry x="1400" y="217" width="80" height="26" as="geometry" />
        </mxCell>
        <mxCell id="41NWjR0-9g-0S3QR88WD-56" value="" style="shape=providedRequiredInterface;html=1;verticalLabelPosition=bottom;sketch=0;rotation=0;" vertex="1" parent="1">
          <mxGeometry x="20" y="243" width="20" height="20" as="geometry" />
        </mxCell>
        <mxCell id="41NWjR0-9g-0S3QR88WD-57" value="HTTP Connector" style="text;align=center;fontStyle=1;verticalAlign=middle;spacingLeft=3;spacingRight=3;strokeColor=none;rotatable=0;points=[[0,0.5],[1,0.5]];portConstraint=eastwest;html=1;" vertex="1" parent="1">
          <mxGeometry x="-10" y="217" width="80" height="26" as="geometry" />
        </mxCell>
        <mxCell id="41NWjR0-9g-0S3QR88WD-58" style="edgeStyle=orthogonalEdgeStyle;rounded=0;orthogonalLoop=1;jettySize=auto;html=1;exitX=0;exitY=0.5;exitDx=0;exitDy=0;entryX=1;entryY=0.5;entryDx=0;entryDy=0;entryPerimeter=0;endArrow=open;endFill=0;dashed=1;strokeWidth=2;" edge="1" parent="1" source="41NWjR0-9g-0S3QR88WD-12" target="41NWjR0-9g-0S3QR88WD-56">
          <mxGeometry relative="1" as="geometry" />
        </mxCell>
      </root>
    </mxGraphModel>
  </diagram>
</mxfile>
